<svg width="1440" height="252" viewBox="0 0 1440 252" fill="none" xmlns="http://www.w3.org/2000/svg">
    <g clip-path="url(#clip0_5122_142)">
    <rect width="1440" height="252" fill="#FDFDFD"/>
    <rect width="1440" height="252" fill="url(#paint0_linear_5122_142)"/>
    <g opacity="0.72">
    <g opacity="0.4">
    <path opacity="0.72" d="M1557.44 -315.641L1216.34 -11.4742L1211.57 -16.8329L1552.66 -321L1557.44 -315.641ZM1564.86 -307.332L1223.76 -3.16498L1228.54 2.19373L1569.63 -301.973L1564.86 -307.332ZM1577.07 -293.642L1235.98 10.5247L1240.75 15.8834L1581.84 -288.284L1577.07 -293.642ZM1589.26 -279.974L1248.17 24.1927L1252.94 29.5515L1594.04 -274.616L1589.26 -279.974ZM1601.45 -266.285L1260.36 37.8824L1265.14 43.2411L1606.23 -260.926L1601.45 -266.285ZM1613.65 -252.617L1272.56 51.5504L1277.33 56.9091L1618.42 -247.258L1613.65 -252.617ZM1625.86 -238.927L1284.77 65.2401L1289.54 70.5988L1630.64 -233.568L1625.86 -238.927ZM1638.05 -225.259L1296.96 78.9081L1301.74 84.2668L1642.83 -219.9L1638.05 -225.259ZM1650.25 -211.569L1309.16 92.5977L1313.93 97.9565L1655.02 -206.211L1650.25 -211.569ZM1662.44 -197.901L1321.35 106.266L1326.12 111.624L1667.21 -192.543L1662.44 -197.901ZM1674.65 -184.212L1333.56 119.955L1338.34 125.314L1679.43 -178.853L1674.65 -184.212ZM1686.85 -170.544L1345.76 133.623L1350.53 138.982L1691.62 -165.185L1686.85 -170.544ZM1699.04 -156.854L1357.95 147.313L1362.72 152.672L1703.81 -151.495L1699.04 -156.854ZM1711.23 -143.186L1370.14 160.981L1374.91 166.34L1716.01 -137.827L1711.23 -143.186ZM1723.43 -129.496L1382.33 174.671L1387.11 180.029L1728.2 -124.137L1723.43 -129.496ZM1735.64 -115.807L1394.55 188.36L1399.32 193.719L1740.41 -110.448L1735.64 -115.807ZM1747.83 -102.139L1406.74 202.028L1411.51 207.387L1752.61 -96.7799L1747.83 -102.139ZM1760.03 -88.4489L1418.93 215.718L1423.71 221.077L1764.8 -83.0902L1760.03 -88.4489ZM1772.22 -74.7809L1431.13 229.386L1435.9 234.745L1776.99 -69.4221L1772.22 -74.7809ZM1784.43 -61.0912L1443.34 243.076L1448.11 248.435L1789.21 -55.7325L1784.43 -61.0912ZM1796.63 -47.4232L1455.53 256.744L1460.31 262.103L1801.4 -42.0645L1796.63 -47.4232ZM1808.82 -33.7336L1467.73 270.433L1472.5 275.792L1813.59 -28.3748L1808.82 -33.7336ZM1821.01 -20.0655L1479.92 284.102L1484.69 289.46L1825.78 -14.7068L1821.01 -20.0655Z" fill="white"/>
    </g>
    <g opacity="0.3">
    <path opacity="0.72" d="M578.373 -273.336L350.313 -69.9647L347.124 -73.5445L575.184 -276.916L578.373 -273.336ZM583.342 -267.76L355.281 -64.3891L358.471 -60.8094L586.531 -264.18L583.342 -267.76ZM591.499 -258.626L363.439 -55.2554L366.628 -51.6757L594.688 -255.047L591.499 -258.626ZM599.656 -249.471L371.596 -46.1L374.785 -42.5204L602.846 -245.891L599.656 -249.471ZM607.814 -240.316L379.754 -36.9447L382.943 -33.3649L611.003 -236.736L607.814 -240.316ZM615.971 -231.182L387.889 -27.8109L391.079 -24.2312L619.139 -227.602L615.971 -231.182ZM624.129 -222.027L396.047 -18.6556L399.236 -15.0758L627.296 -218.447L624.129 -222.027ZM632.264 -212.893L404.204 -9.52188L407.393 -5.94211L635.454 -209.313L632.264 -212.893ZM640.422 -203.738L412.362 -0.366425L415.551 3.2132L643.611 -200.158L640.422 -203.738ZM648.579 -194.604L420.519 8.76718L423.708 12.347L651.768 -191.024L648.579 -194.604ZM656.737 -185.449L428.676 17.9226L431.866 21.5023L659.947 -181.869L656.737 -185.449ZM664.894 -176.293L436.834 27.078L440.023 30.6577L668.083 -172.713L664.894 -176.293ZM673.051 -167.159L444.991 36.2117L448.18 39.7913L676.241 -163.58L673.051 -167.159ZM681.209 -158.004L453.149 45.367L456.338 48.9468L684.398 -154.424L681.209 -158.004ZM689.366 -148.87L461.306 54.5008L464.495 58.0804L692.555 -145.291L689.366 -148.87ZM697.524 -139.715L469.463 63.6561L472.653 67.2358L700.713 -136.135L697.524 -139.715ZM705.681 -130.559L477.621 72.8115L480.81 76.3912L708.87 -126.98L705.681 -130.559ZM713.838 -121.426L485.778 81.9451L488.967 85.5249L717.028 -117.846L713.838 -121.426ZM721.996 -112.27L493.936 91.1006L497.125 94.6804L725.185 -108.691L721.996 -112.27ZM730.153 -103.137L502.093 100.234L505.282 103.814L733.342 -99.5571L730.153 -103.137ZM738.311 -93.9814L510.25 109.39L513.44 112.969L741.5 -90.4016L738.311 -93.9814ZM746.468 -84.8476L518.408 118.523L521.597 122.103L749.657 -81.268L746.468 -84.8476ZM754.625 -75.6923L526.565 127.679L529.754 131.258L757.815 -72.1125L754.625 -75.6923Z" fill="white"/>
    </g>
    <g opacity="0.8">
    <path opacity="0.72" d="M-31.7506 -115.42L-259.811 87.9508L-263 84.371L-34.9398 -119L-31.7506 -115.42ZM-26.7824 -109.845L-254.843 93.5265L-251.653 97.1061L-23.5932 -106.265L-26.7824 -109.845ZM-18.625 -100.711L-246.685 102.66L-243.496 106.24L-15.4357 -97.1312L-18.625 -100.711ZM-10.4676 -91.5556L-238.528 111.816L-235.339 115.395L-7.2784 -87.9759L-10.4676 -91.5556ZM-2.31018 -82.4002L-230.37 120.971L-227.181 124.551L0.879028 -78.8204L-2.31018 -82.4002ZM5.84726 -73.2664L-222.235 130.105L-219.045 133.684L9.01474 -69.6868L5.84726 -73.2664ZM14.0046 -64.1111L-214.077 139.26L-210.888 142.84L17.1722 -60.5313L14.0046 -64.1111ZM22.1403 -54.9774L-205.92 148.394L-202.731 151.973L25.3295 -51.3977L22.1403 -54.9774ZM30.2978 -45.822L-197.762 157.549L-194.573 161.129L33.487 -42.2423L30.2978 -45.822ZM38.4552 -36.6883L-189.605 166.683L-186.416 170.262L41.6444 -33.1085L38.4552 -36.6883ZM46.6125 -27.533L-181.448 175.838L-178.258 179.418L49.8235 -23.9532L46.6125 -27.533ZM54.77 -18.3775L-173.29 184.993L-170.101 188.573L57.9592 -14.7978L54.77 -18.3775ZM62.9274 -9.2438L-165.133 194.127L-161.944 197.707L66.1166 -5.66416L62.9274 -9.2438ZM71.0847 -0.0884781L-156.975 203.283L-153.786 206.862L74.274 3.49129L71.0847 -0.0884781ZM79.2422 9.04526L-148.818 212.416L-145.629 215.996L82.4314 12.6249L79.2422 9.04526ZM87.3996 18.2006L-140.661 221.572L-137.471 225.151L90.5888 21.7803L87.3996 18.2006ZM95.557 27.356L-132.503 230.727L-129.314 234.307L98.7462 30.9357L95.557 27.356ZM103.714 36.4896L-124.346 239.861L-121.157 243.44L106.904 40.0694L103.714 36.4896ZM111.872 45.6451L-116.188 249.016L-112.999 252.596L115.061 49.2247L111.872 45.6451ZM120.029 54.7787L-108.031 258.15L-104.842 261.729L123.218 58.3585L120.029 54.7787ZM128.187 63.9342L-99.8736 267.305L-96.6844 270.885L131.376 67.5139L128.187 63.9342ZM136.344 73.0679L-91.7162 276.439L-88.527 280.019L139.533 76.6475L136.344 73.0679ZM144.501 82.2232L-83.5588 285.594L-80.3696 289.174L147.691 85.803L144.501 82.2232Z" fill="white"/>
    </g>
    <g opacity="0.2">
    <path opacity="0.72" d="M653.605 364.907L473.992 270.222L474.412 267.469L654.025 362.155L653.605 364.907ZM652.954 369.188L473.341 274.502L472.922 277.255L652.535 371.941L652.954 369.188ZM651.884 376.221L472.271 281.535L471.851 284.288L651.464 378.974L651.884 376.221ZM650.811 383.284L471.198 288.598L470.778 291.35L650.391 386.036L650.811 383.284ZM649.74 390.317L470.128 295.631L469.708 298.383L649.321 393.069L649.74 390.317ZM648.667 397.38L469.055 302.694L468.635 305.446L648.248 400.132L648.667 397.38ZM647.597 404.413L467.984 309.727L467.565 312.479L647.177 407.165L647.597 404.413ZM646.524 411.475L466.911 316.789L466.492 319.542L646.104 414.228L646.524 411.475ZM645.454 418.508L465.841 323.822L465.421 326.575L645.034 421.261L645.454 418.508ZM644.38 425.571L464.768 330.885L464.348 333.637L643.961 428.323L644.38 425.571ZM643.31 432.604L463.697 337.918L463.278 340.671L642.891 435.357L643.31 432.604ZM642.253 439.659L462.64 344.973L462.221 347.725L641.834 442.411L642.253 439.659ZM641.167 446.7L461.554 352.014L461.134 354.766L640.747 449.452L641.167 446.7ZM640.11 453.755L460.497 359.069L460.077 361.821L639.69 456.507L640.11 453.755ZM639.023 460.796L459.41 366.11L458.991 368.862L638.604 463.548L639.023 460.796ZM637.953 467.829L458.34 373.143L457.92 375.895L637.533 470.581L637.953 467.829ZM636.88 474.891L457.267 380.205L456.847 382.958L636.46 477.644L636.88 474.891ZM635.809 481.924L456.196 387.238L455.777 389.991L635.39 484.677L635.809 481.924ZM634.736 488.987L455.123 394.301L454.704 397.053L634.317 491.74L634.736 488.987ZM633.666 496.02L454.053 401.334L453.634 404.087L633.246 498.773L633.666 496.02ZM632.609 503.075L452.996 408.389L452.577 411.141L632.189 505.827L632.609 503.075ZM631.522 510.116L451.91 415.43L451.49 418.182L631.103 512.868L631.522 510.116ZM630.466 517.171L450.853 422.485L450.433 425.237L630.046 519.923L630.466 517.171Z" fill="white"/>
    </g>
    </g>
    </g>
    <defs>
    <linearGradient id="paint0_linear_5122_142" x1="0" y1="126" x2="1440" y2="126" gradientUnits="userSpaceOnUse">
    <stop stop-color="#7E212C"/>
    <stop offset="1" stop-color="#FED5D9"/>
    </linearGradient>
    <clipPath id="clip0_5122_142">
    <rect width="1440" height="252" fill="white"/>
    </clipPath>
    </defs>
</svg>
