<svg width="49" height="49" viewBox="0 0 49 49" fill="none" xmlns="http://www.w3.org/2000/svg">
<path fill-rule="evenodd" clip-rule="evenodd" d="M26.375 47.0463C26.7587 45.8829 28.7525 38.3402 29.63 37.4627C30.4382 36.6545 29.8783 35.5635 28.9672 36.1765C28.2638 36.6506 27.6318 36.4343 25.664 36.5678C24.168 36.6651 24.2806 37.355 24.4246 29.0939C24.8385 6.23205 25.0578 5.20679 24.4726 1.48124C24.1351 -0.703518 23.2677 0.599574 23.1261 1.61251C22.961 2.76358 22.953 5.01859 22.9945 9.58592C23.0266 13.5665 22.3357 30.9535 22.3284 33.0244C22.3141 37.1202 22.3606 36.959 21.0031 36.9408C19.082 36.89 17.6847 38.356 18.6936 39.3649C19.6337 40.305 22.1737 44.3228 23.9224 47.6186C24.7796 49.2378 25.7353 49.0159 26.375 47.0463Z" fill="#BFFB4F"/>
</svg>
