<svg width="62" height="67" viewBox="0 0 62 67" fill="none" xmlns="http://www.w3.org/2000/svg">
<path fill-rule="evenodd" clip-rule="evenodd" d="M26.3173 1.59501C29.9607 0.79437 53.4284 13.4389 54.8013 28.1705C55.3371 33.8692 48.2097 43.0753 36.7008 51.6032C34.8028 53.0091 33.4886 53.9607 31.8587 55.5841C31.7513 55.6836 32.8174 55.4411 34.2424 55.0256C37.6164 54.042 39.4125 54.0414 40.2589 55.0338C40.6618 55.5189 40.4335 55.7105 39.2097 55.9195C35.6987 56.511 32.3705 57.9247 28.0301 60.702C26.3238 61.7906 23.6284 61.8261 26.0856 57.3467C28.1642 53.5575 29.121 51.1071 30.0558 47.0602C30.667 44.4377 32.2811 43.7739 32.8352 45.9088C33.0281 46.6484 32.4314 49.4372 31.481 52.2608L30.991 53.6997C35.6619 50.2235 35.9667 50.0209 39.5291 46.9929C47.9896 39.7856 52.4191 33.2192 52.0351 28.4312C51.0527 16.3257 35.3047 7.38781 25.9514 2.13373C25.6943 1.99268 25.8995 1.68271 26.3173 1.59501Z" fill="#000"/>
</svg>
