<!-- <svg width="124" height="274" viewBox="0 0 124 274" fill="none" xmlns="http://www.w3.org/2000/svg">
<path d="M86.5254 60.0411C98.5321 76.2593 87.7029 107.452 78.1135 125.208C68.5242 142.964 54.77 158.792 49.2449 178.205C37.5337 219.432 71.6992 265.153 114.068 271.612C156.449 278.067 209.522 266.553 231.903 217.582C249.718 178.602 230.241 125.211 211.16 86.8309C194.398 53.1043 166.576 24.2713 131.778 9.88864C96.9809 -4.49407 55.2353 -3.24837 23.1557 16.4804C4.36373 28.0364 -14.0194 59.4959 15.7439 59.8779C38.8643 60.1498 67.8465 34.8037 86.5254 60.0411Z" fill="url(#paint0_linear_5148_858)"/>
<defs>
<linearGradient id="paint0_linear_5148_858" x1="167.616" y1="268.952" x2="16.1538" y2="14.0191" gradientUnits="userSpaceOnUse">
<stop stop-color="#FED5D9"/>
<stop offset="1" stop-color="#CCD3D9"/>
</linearGradient>
</defs>
</svg> -->

<svg width="124" height="274" viewBox="0 0 124 274" fill="none" xmlns="http://www.w3.org/2000/svg">
<path d="M86.5254 60.0411C98.5321 76.2593 87.7029 107.452 78.1135 125.208C68.5242 142.964 54.77 158.792 49.2449 178.205C37.5337 219.432 71.6992 265.153 114.068 271.612C156.449 278.067 209.522 266.553 231.903 217.582C249.718 178.602 230.241 125.211 211.16 86.8309C194.398 53.1043 166.576 24.2713 131.778 9.88864C96.9809 -4.49407 55.2353 -3.24837 23.1557 16.4804C4.36373 28.0364 -14.0194 59.4959 15.7439 59.8779C38.8643 60.1498 67.8465 34.8037 86.5254 60.0411Z" fill="url(#gradient1)"/>
<defs>
<linearGradient id="gradient1" x1="0%" y1="0%" x2="100%" y2="100%" gradientUnits="userSpaceOnUse">
  <stop offset="0%" stop-color="#FED5D9"/>
  <stop offset="50%" stop-color="#CCD3D9"/>
  <stop offset="100%" stop-color="#7E212C"/>
</linearGradient>
</defs>
</svg>
