<!-- <svg width="133" height="417" viewBox="0 0 133 417" fill="none" xmlns="http://www.w3.org/2000/svg">
<path fill-rule="evenodd" clip-rule="evenodd" d="M-77.6756 349.122C-105.911 353.54 -107.133 402.018 -133.672 412.622C-159.423 422.91 -188.808 412.068 -215.38 404.139C-247.344 394.602 -284.616 388.347 -304.583 361.625C-324.393 335.113 -319.986 297.823 -319.548 264.73C-319.136 233.572 -313.861 202.94 -302.103 174.083C-290.503 145.615 -268.948 123.684 -251.707 98.2344C-230.488 66.911 -222.396 22.0286 -188.171 5.90313C-154.658 -9.88642 -115.431 10.2795 -78.9724 16.8506C-43.6879 23.2101 -4.04258 21.36 23.6868 44.0872C51.3002 66.7193 51.7848 108.487 70.1725 139.091C88.6675 169.873 130.731 189.405 132.547 225.271C134.377 261.441 99.3678 288.269 79.2466 318.381C62.5606 343.353 53.2965 382.206 23.8237 387.98C-12.1796 395.033 -41.429 343.451 -77.6756 349.122Z" fill="url(#paint0_linear_5148_859)"/>
<defs>
<linearGradient id="paint0_linear_5148_859" x1="39.7952" y1="-68" x2="-383.066" y2="373.89" gradientUnits="userSpaceOnUse">
<stop stop-color="#7E212C"/>
<stop offset="1" stop-color="#FED5D9"/>
</linearGradient>
</defs>
</svg> -->

<svg width="133" height="417" viewBox="0 0 133 417" fill="none" xmlns="http://www.w3.org/2000/svg">
<path fill-rule="evenodd" clip-rule="evenodd" d="M-77.6756 349.122C-105.911 353.54 -107.133 402.018 -133.672 412.622C-159.423 422.91 -188.808 412.068 -215.38 404.139C-247.344 394.602 -284.616 388.347 -304.583 361.625C-324.393 335.113 -319.986 297.823 -319.548 264.73C-319.136 233.572 -313.861 202.94 -302.103 174.083C-290.503 145.615 -268.948 123.684 -251.707 98.2344C-230.488 66.911 -222.396 22.0286 -188.171 5.90313C-154.658 -9.88642 -115.431 10.2795 -78.9724 16.8506C-43.6879 23.2101 -4.04258 21.36 23.6868 44.0872C51.3002 66.7193 51.7848 108.487 70.1725 139.091C88.6675 169.873 130.731 189.405 132.547 225.271C134.377 261.441 99.3678 288.269 79.2466 318.381C62.5606 343.353 53.2965 382.206 23.8237 387.98C-12.1796 395.033 -41.429 343.451 -77.6756 349.122Z" fill="url(#gradient2)"/>
<defs>
<linearGradient id="gradient2" x1="0%" y1="0%" x2="100%" y2="100%" gradientUnits="userSpaceOnUse">
  <stop offset="0%" stop-color="#CCD3D9"/>
  <stop offset="50%" stop-color="#FED5D9"/>
  <stop offset="100%" stop-color="#7E212C"/>
</linearGradient>
</defs>
</svg>
